<svg width="53" height="35" viewBox="0 0 53 35" fill="none" xmlns="http://www.w3.org/2000/svg">
<path d="M11.176 34.576C8.904 34.576 6.808 34.16 4.888 33.328C3 32.464 1.448 31.248 0.232 29.68L4.552 24.496C6.376 26.96 8.456 28.192 10.792 28.192C13.96 28.192 15.544 26.336 15.544 22.624V6.64H3.736V0.399998H23.272V22.192C23.272 26.32 22.248 29.424 20.2 31.504C18.152 33.552 15.144 34.576 11.176 34.576Z" fill="#F2542D"/>
<path d="M46.0128 34L41.1528 26.98H40.8648H35.7888V34H29.9568V8.8H40.8648C43.0968 8.8 45.0288 9.172 46.6608 9.916C48.3168 10.66 49.5888 11.716 50.4768 13.084C51.3648 14.452 51.8088 16.072 51.8088 17.944C51.8088 19.816 51.3528 21.436 50.4408 22.804C49.5528 24.148 48.2808 25.18 46.6248 25.9L52.2768 34H46.0128ZM45.9048 17.944C45.9048 16.528 45.4488 15.448 44.5368 14.704C43.6248 13.936 42.2928 13.552 40.5408 13.552H35.7888V22.336H40.5408C42.2928 22.336 43.6248 21.952 44.5368 21.184C45.4488 20.416 45.9048 19.336 45.9048 17.944Z" fill="#F2D5A6"/>
</svg>
